<?xml version="1.0" encoding="UTF-8" standalone="no"?>
<svg
   height="80"
   width="120"
   viewBox="-40.446 -22.19 35.0532 13.314"
   version="1.1"
   id="svg6"
   sodipodi:docname="Google-Logo.wine tes.svg"
   inkscape:version="1.3 (0e150ed6c4, 2023-07-21)"
   xmlns:inkscape="http://www.inkscape.org/namespaces/inkscape"
   xmlns:sodipodi="http://sodipodi.sourceforge.net/DTD/sodipodi-0.dtd"
   xmlns="http://www.w3.org/2000/svg"
   xmlns:svg="http://www.w3.org/2000/svg">
  <defs
     id="defs6" />
  <sodipodi:namedview
     id="namedview6"
     pagecolor="#ffffff"
     bordercolor="#000000"
     borderopacity="0.25"
     inkscape:showpageshadow="2"
     inkscape:pageopacity="0.0"
     inkscape:pagecheckerboard="0"
     inkscape:deskcolor="#d1d1d1"
     inkscape:zoom="2.2556706"
     inkscape:cx="110.16679"
     inkscape:cy="71.154005"
     inkscape:window-width="1920"
     inkscape:window-height="1046"
     inkscape:window-x="-11"
     inkscape:window-y="-11"
     inkscape:window-maximized="1"
     inkscape:current-layer="svg6" />
  <g
     id="g6"
     transform="translate(-0.97910015,0.3029)">
    <path
       d="m -24.4662,-15.533 c 0,1.6601 -1.2987,2.8834 -2.8925,2.8834 -1.5938,0 -2.8925,-1.2233 -2.8925,-2.8834 0,-1.6718 1.2987,-2.8834 2.8925,-2.8834 1.5938,0 2.8925,1.2116 2.8925,2.8834 z m -1.2662,0 c 0,-1.0374 -0.7527,-1.7472 -1.6263,-1.7472 -0.8736,0 -1.6263,0.7098 -1.6263,1.7472 0,1.027 0.7527,1.7472 1.6263,1.7472 0.8736,0 1.6263,-0.7215 1.6263,-1.7472 z"
       fill="#ea4335"
       id="path1"
       style="stroke-width:1" />
    <path
       d="m -18.2262,-15.533 c 0,1.6601 -1.2987,2.8834 -2.8925,2.8834 -1.5938,0 -2.8925,-1.2233 -2.8925,-2.8834 0,-1.6705 1.2987,-2.8834 2.8925,-2.8834 1.5938,0 2.8925,1.2116 2.8925,2.8834 z m -1.2662,0 c 0,-1.0374 -0.7527,-1.7472 -1.6263,-1.7472 -0.8736,0 -1.6263,0.7098 -1.6263,1.7472 0,1.027 0.7527,1.7472 1.6263,1.7472 0.8736,0 1.6263,-0.7215 1.6263,-1.7472 z"
       fill="#fbbc05"
       id="path2"
       style="stroke-width:1" />
    <path
       d="m -12.2462,-18.2422 v 5.1766 c 0,2.1294 -1.2558,2.9991 -2.7404,2.9991 -1.3975,0 -2.2386,-0.9347 -2.5558,-1.6991 l 1.1024,-0.4589 c 0.1963,0.4693 0.6773,1.0231 1.4521,1.0231 0.9503,0 1.5392,-0.5863 1.5392,-1.69 v -0.4147 h -0.0442 c -0.2834,0.3497 -0.8294,0.6552 -1.5184,0.6552 -1.4417,0 -2.7625,-1.2558 -2.7625,-2.8717 0,-1.6276 1.3208,-2.8938 2.7625,-2.8938 0.6877,0 1.2337,0.3055 1.5184,0.6448 h 0.0442 v -0.4693 h 1.2025 z m -1.1128,2.7196 c 0,-1.0153 -0.6773,-1.7576 -1.5392,-1.7576 -0.8736,0 -1.6055,0.7423 -1.6055,1.7576 0,1.0049 0.7319,1.7368 1.6055,1.7368 0.8619,0 1.5392,-0.7319 1.5392,-1.7368 z"
       fill="#4285f4"
       id="path3"
       style="stroke-width:1" />
    <path
       d="m -10.2637,-21.2764 v 8.45 h -1.235 v -8.45 z"
       fill="#34a853"
       id="path4"
       style="stroke-width:1" />
    <path
       d="m -5.4510997,-14.584 0.9828,0.6552 c -0.3172,0.4693 -1.0816,1.2779 -2.4024,1.2779 -1.638,0 -2.8613,-1.2662 -2.8613,-2.8834 0,-1.7147 1.2337,-2.8834 2.7196,-2.8834 1.4963,0 2.2282,1.1908 2.4674,1.8343 l 0.1313,0.3276 -3.8545,1.5964 c 0.2951,0.5785 0.754,0.8736 1.3975,0.8736 0.6448,0 1.092,-0.3172 1.4196,-0.7982 z m -3.0251,-1.0374 2.5766,-1.0699 c -0.1417,-0.3601 -0.5681,-0.611 -1.0699,-0.611 -0.6435,0 -1.5392,0.5681 -1.5067,1.6809 z"
       fill="#ea4335"
       id="path5"
       style="stroke-width:1" />
    <path
       d="m -34.926,-16.2831 v -1.2233 h 4.1223 c 0.0403,0.2132 0.0611,0.4654 0.0611,0.7384 0,0.9178 -0.2509,2.0527 -1.0595,2.8613 -0.7865,0.819 -1.7914,1.2558 -3.1226,1.2558 -2.4674,0 -4.5422,-2.0098 -4.5422,-4.4772 0,-2.4674 2.0748,-4.4772 4.5422,-4.4772 1.365,0 2.3374,0.5356 3.068,1.2337 l -0.8632,0.8632 c -0.5239,-0.4914 -1.2337,-0.8736 -2.2061,-0.8736 -1.8018,0 -3.211,1.4521 -3.211,3.2539 0,1.8018 1.4092,3.2539 3.211,3.2539 1.1687,0 1.8343,-0.4693 2.2607,-0.8957 0.3458,-0.3458 0.5733,-0.8398 0.663,-1.5145 z"
       fill="#4285f4"
       id="path6"
       style="stroke-width:1" />
  </g>
</svg>
